<?xml version="1.0" encoding="UTF-8"?>
<svg version="1.1" xmlns="http://www.w3.org/2000/svg" width="500" height="500">
<path d="M0 0 C7.32289124 6.20853823 11.64361841 15.98047633 16.4760437 24.1920166 C18.56903738 27.74752764 20.67097583 31.29773795 22.7734375 34.84765625 C23.20033371 35.56859467 23.62722992 36.28953308 24.06706238 37.03231812 C28.26613364 44.11419789 32.53069011 51.15543179 36.8125 58.1875 C37.51275026 59.33875239 38.21294617 60.49003783 38.91308594 61.64135742 C41.53192354 65.9464542 44.151759 70.25093855 46.77441406 74.55371094 C48.49971463 77.38740876 50.21936609 80.22445304 51.9375 83.0625 C52.69824829 84.30725098 52.69824829 84.30725098 53.47436523 85.57714844 C53.92755127 86.32770508 54.3807373 87.07826172 54.84765625 87.8515625 C55.24218994 88.5007666 55.63672363 89.1499707 56.04321289 89.81884766 C56.875 91.4375 56.875 91.4375 56.875 93.4375 C61.88341622 90.33228194 66.00081866 86.69272164 70.25 82.625 C71.58509367 81.36238839 72.9210216 80.10065829 74.2578125 78.83984375 C74.88848633 78.24413574 75.51916016 77.64842773 76.16894531 77.03466797 C78.69615028 74.66875857 81.29876476 72.39878077 83.921875 70.140625 C87.39988749 67.10779811 90.78713061 63.97407331 94.1953125 60.86328125 C97.101017 58.23289861 100.04722465 55.65557183 103.0234375 53.10546875 C105.39577209 50.96836565 107.63117719 48.70831037 109.875 46.4375 C99.98825709 37.17496312 99.98825709 37.17496312 89.86328125 28.17578125 C87.33447072 25.96493511 84.85627436 23.70153557 82.375 21.4375 C79.25592989 18.59225772 76.12744609 15.7655042 72.9375 13 C69.37548104 9.89903568 65.86793217 6.74081802 62.375 3.5625 C61.83367432 3.07338135 61.29234863 2.5842627 60.73461914 2.08032227 C59.42858874 0.88703664 58.14906869 -0.33514717 56.875 -1.5625 C56.875 -1.8925 56.875 -2.2225 56.875 -2.5625 C61.16150992 -2.73662392 65.44610523 -2.86305511 69.73510742 -2.94702148 C71.19120163 -2.98204781 72.64705274 -3.02968806 74.10229492 -3.09057617 C86.19222717 -3.58345111 86.19222717 -3.58345111 90.29907227 -1.09179688 C92.03725848 0.65772886 93.45702218 2.4247507 94.875 4.4375 C96.12915504 5.58106351 97.39638962 6.7108302 98.6875 7.8125 C101.73905048 10.44659367 104.755689 13.11340276 107.75 15.8125 C108.58660156 16.56402344 109.42320312 17.31554687 110.28515625 18.08984375 C112.05483761 19.69403454 113.81217365 21.31192258 115.55859375 22.94140625 C116.42613281 23.74449219 117.29367188 24.54757813 118.1875 25.375 C118.96738281 26.10589844 119.74726563 26.83679688 120.55078125 27.58984375 C122.92207284 29.47492093 125.01939036 30.47215232 127.875 31.4375 C128.2875 31.01339844 128.7 30.58929688 129.125 30.15234375 C132.8299514 26.38950248 136.64249935 22.83471471 140.640625 19.38671875 C143.25351376 17.10729306 145.81430021 14.77537647 148.375 12.4375 C157.66126596 3.97553504 157.66126596 3.97553504 161.875 0.4375 C162.69738159 -0.34149658 162.69738159 -0.34149658 163.53637695 -1.13623047 C166.79479823 -3.12346266 169.25021155 -2.90214904 173.046875 -2.85546875 C174.0705014 -2.84910149 174.0705014 -2.84910149 175.11480713 -2.84260559 C177.28528004 -2.82586972 179.45480979 -2.78822959 181.625 -2.75 C183.10024697 -2.73494646 184.57550855 -2.72125922 186.05078125 -2.70898438 C189.65915844 -2.67598377 193.2669871 -2.62423767 196.875 -2.5625 C192.68224031 1.65146943 188.39976743 5.74860691 184.0625 9.8125 C183.05219727 10.76382813 183.05219727 10.76382813 182.02148438 11.734375 C177.97367093 15.53041058 173.86129641 19.23517998 169.67211914 22.87451172 C167.4251454 24.828747 165.21000574 26.81661246 163 28.8125 C161.74509766 29.94365234 161.74509766 29.94365234 160.46484375 31.09765625 C158.70552991 32.68714191 156.9477708 34.27834977 155.19140625 35.87109375 C154.32386719 36.65613281 153.45632813 37.44117188 152.5625 38.25 C151.39267578 39.31154297 151.39267578 39.31154297 150.19921875 40.39453125 C147.81618551 42.48919744 145.3672082 44.47461035 142.875 46.4375 C147.69463543 51.3575445 152.56098983 56.14313284 157.78515625 60.6328125 C162.75181716 64.92177949 167.58300357 69.36775777 172.453125 73.765625 C178.85275247 79.53706818 185.28816368 85.25526936 191.875 90.8125 C192.865 91.67875 193.855 92.545 194.875 93.4375 C194.875 93.7675 194.875 94.0975 194.875 94.4375 C164.36975319 96.44294791 164.36975319 96.44294791 157.80908203 90.8581543 C155.64086138 88.51355828 153.74039306 86.0265672 151.875 83.4375 C150.53920292 82.1859647 149.16672127 80.97163558 147.75 79.8125 C143.95441181 76.52876499 140.25483845 73.14529047 136.5625 69.74609375 C133.12885664 66.79655418 129.52154902 64.11642412 125.875 61.4375 C125.43220703 61.85523682 124.98941406 62.27297363 124.53320312 62.70336914 C122.48185083 64.63705151 120.42843683 66.56853149 118.375 68.5 C117.67890625 69.15677734 116.9828125 69.81355469 116.265625 70.49023438 C112.14432523 74.36349296 107.96310107 78.14752248 103.69189453 81.85473633 C100.43784361 84.6894598 97.26259004 87.61145634 94.07421875 90.51953125 C90.47795521 93.65588187 88.3461294 94.69933804 83.64428711 94.91845703 C82.04133034 94.99569504 82.04133034 94.99569504 80.4059906 95.07449341 C75.50430374 95.24352225 70.6031961 95.37460345 65.69946289 95.46728516 C63.11968548 95.53047925 60.54048553 95.62591114 57.96313477 95.75439453 C37.20306528 96.77474828 37.20306528 96.77474828 31.78695679 92.97109985 C28.39579594 89.28322866 26.44785758 85.06368274 24.66732788 80.42260742 C23.60311111 77.75630643 22.14414226 75.43436925 20.58984375 73.02734375 C19.66251453 71.47748765 18.73670852 69.92671905 17.8125 68.375 C16.78646728 66.65884882 15.76042555 64.94270302 14.734375 63.2265625 C14.24517578 62.40704102 13.75597656 61.58751953 13.25195312 60.74316406 C12.05034488 58.7311094 10.84653311 56.72041692 9.640625 54.7109375 C9.29580078 54.13561279 8.95097656 53.56028809 8.59570312 52.9675293 C7.90764399 51.82374479 7.21623899 50.68196629 6.52148438 49.54223633 C4.01119086 45.40615992 1.62462609 41.21269471 -0.734375 36.98828125 C-2.05195748 34.67961567 -3.36966645 32.37102227 -4.6875 30.0625 C-5.30085205 28.93690674 -5.9142041 27.81131348 -6.54614258 26.65161133 C-9.48394533 21.07291998 -9.48394533 21.07291998 -14.37060547 17.49511719 C-16.80333362 17.11209806 -16.80333362 17.11209806 -20.125 17.4375 C-20.40102051 18.16839844 -20.67704102 18.89929688 -20.96142578 19.65234375 C-22.05376305 22.2669857 -23.28465327 24.57436754 -24.7421875 27 C-25.52106323 28.30493408 -25.52106323 28.30493408 -26.31567383 29.63623047 C-26.87150146 30.56064941 -27.4273291 31.48506836 -28 32.4375 C-34.51491959 43.35916528 -40.85162076 54.37568648 -47.125 65.4375 C-47.785 65.4375 -48.445 65.4375 -49.125 65.4375 C-49.40520996 66.14414795 -49.68541992 66.8507959 -49.97412109 67.57885742 C-58.24499421 88.12269563 -58.24499421 88.12269563 -65.125 94.4375 C-72.81316741 97.28501561 -81.24103662 95.95327309 -89.125 94.4375 C-87.84167102 90.16969417 -86.22256958 86.63640484 -83.87890625 82.8515625 C-83.21608643 81.77221436 -82.5532666 80.69286621 -81.87036133 79.58081055 C-81.5156778 79.00922211 -81.16099426 78.43763367 -80.79556274 77.84872437 C-78.86651634 74.73905417 -76.9580009 71.61679734 -75.046875 68.49609375 C-74.44453789 67.51419823 -74.44453789 67.51419823 -73.83003235 66.51246643 C-69.69956855 59.76819872 -65.66605851 52.96762852 -61.64147949 46.15982056 C-60.43939467 44.12820215 -59.23441913 42.09832948 -58.02832031 40.0690918 C-57.63493469 39.40721359 -57.24154907 38.74533539 -56.83624268 38.06340027 C-56.44684509 37.40825943 -56.05744751 36.75311859 -55.65625 36.078125 C-53.44529107 32.3582656 -51.23793441 28.63659873 -49.0546875 24.90039062 C-47.19394209 21.71821945 -45.31728168 18.54595009 -43.4375 15.375 C-42.91003174 14.46000732 -42.38256348 13.54501465 -41.83911133 12.60229492 C-37.8548821 5.93324784 -32.98381248 -0.64181431 -25.25 -3 C-16.49169729 -4.56275597 -8.01133542 -4.00566771 0 0 Z " fill="#033655" transform="translate(105.125,203.5625)"/>
<path d="M0 0 C1.05440781 -0.00014603 2.10881561 -0.00029205 3.19517517 -0.0004425 C6.66342257 0.00025145 10.13161556 0.00801959 13.59985352 0.01586914 C16.01123526 0.01773516 18.42261738 0.01915819 20.83399963 0.02015686 C27.16821344 0.02396756 33.50240417 0.03378549 39.83660889 0.04486084 C46.3052133 0.05510609 52.77382145 0.05966115 59.24243164 0.06469727 C71.9253861 0.07540907 84.6083174 0.09299414 97.29125977 0.11352539 C97.29125977 7.04352539 97.29125977 13.97352539 97.29125977 21.11352539 C93.98521729 21.11763428 90.6791748 21.12174316 87.27294922 21.12597656 C76.3563944 21.14316493 65.44007421 21.18765144 54.52366352 21.24561596 C47.90423859 21.27992362 41.2850454 21.30500189 34.66552734 21.30908203 C28.27867841 21.31335675 21.89235256 21.34175188 15.50566673 21.38695717 C13.06762932 21.39995846 10.62952939 21.40423061 8.19146156 21.39967918 C4.77924564 21.39479223 1.36856975 21.42078383 -2.04345703 21.45410156 C-3.05406189 21.44547592 -4.06466675 21.43685028 -5.105896 21.42796326 C-9.79377399 21.50482243 -12.0012862 21.58177227 -15.84016418 24.46723938 C-17.90266976 26.99841235 -17.90266976 26.99841235 -18.27124023 30.11352539 C-17.5758722 33.82215492 -16.40119384 35.49586216 -13.70874023 38.11352539 C-9.84944947 39.59688632 -5.66917773 39.25818233 -1.59472656 39.25537109 C-0.77954559 39.25884552 0.03563538 39.26231995 0.8755188 39.26589966 C2.64392098 39.27324372 4.4123323 39.27859629 6.18074608 39.28219032 C8.98542563 39.28937374 11.78993204 39.30505546 14.59455872 39.3235321 C22.56838574 39.37590552 30.54211803 39.42394329 38.51611328 39.43945312 C43.39682786 39.44956779 48.27710628 39.4789813 53.15764809 39.52077293 C55.0118307 39.53303918 56.86607503 39.53821223 58.72029686 39.5359745 C70.71728751 39.52506111 80.41290656 39.78430572 89.72094727 48.26977539 C96.12390771 55.7876792 98.05497766 64.51048003 97.29125977 74.11352539 C95.5521545 83.05960078 90.59767201 89.91834426 83.19750977 95.10571289 C76.88812182 98.44141389 71.01869318 98.3881047 64.0534668 98.34057617 C62.93093002 98.34086823 61.80839325 98.34116028 60.65184021 98.34146118 C56.95083824 98.34007067 53.25003896 98.32452226 49.54907227 98.30883789 C46.97932037 98.30510678 44.40956706 98.30226027 41.83981323 98.30026245 C35.77321963 98.29341299 29.70670935 98.27765876 23.64014709 98.25756347 C16.73083887 98.23517551 9.82152712 98.22420377 2.91219163 98.2141726 C-11.29482557 98.19329164 -25.50177772 98.15772888 -39.70874023 98.11352539 C-39.70874023 91.51352539 -39.70874023 84.91352539 -39.70874023 78.11352539 C-38.34175491 78.10987976 -36.97476959 78.10623413 -35.56636047 78.10247803 C-22.69114754 78.06555555 -9.8161744 78.00781271 3.05885601 77.92962265 C9.67824491 77.89009395 16.29749969 77.85793177 22.91699219 77.8425293 C29.30378987 77.8273985 35.69021897 77.79301595 42.0768528 77.74521637 C44.51488862 77.73036574 46.95297706 77.72248228 49.39105797 77.72164154 C52.80309844 77.71928131 56.21411252 77.69227591 59.62597656 77.65942383 C60.63658142 77.66445419 61.64718628 77.66948456 62.68841553 77.67466736 C67.08407583 77.60907962 69.6011508 77.53511506 73.41633606 75.20440674 C75.4303783 72.95838289 75.97434732 72.0876083 75.91625977 69.11352539 C75.92915039 68.45352539 75.94204102 67.79352539 75.95532227 67.11352539 C74.89706851 63.92631409 73.08763023 62.90685649 70.29125977 61.11352539 C67.42723746 60.73813422 64.95289925 60.58853828 62.09545898 60.63110352 C61.28334457 60.62719101 60.47123016 60.6232785 59.63450623 60.61924744 C57.87540333 60.61328184 56.11625099 60.61642551 54.35717392 60.62767029 C51.56420079 60.64497205 48.77225938 60.63740086 45.97927856 60.62341309 C39.03876267 60.59379737 32.09844453 60.6069038 25.15789795 60.61859131 C19.2969896 60.62683114 13.43653215 60.618697 7.57568741 60.58946228 C4.83978663 60.5824204 2.10470231 60.59898447 -0.63113403 60.61657715 C-11.86333181 60.61476085 -22.63792181 60.1053376 -31.21264648 51.85961914 C-37.43549211 44.59692464 -40.1039897 35.96122245 -39.55249023 26.40649414 C-38.12137544 17.44826596 -33.66380856 11.27926178 -26.75170898 5.58618164 C-18.71342118 -0.20814819 -9.52723857 -0.03478481 0 0 Z " fill="#033655" transform="translate(387.708740234375,199.886474609375)"/>
<path d="M0 0 C6.93 0 13.86 0 21 0 C21 32.01 21 64.02 21 97 C14.07 97 7.14 97 0 97 C0 64.99 0 32.98 0 0 Z " fill="#033655" transform="translate(314,201)"/>
<path d="M0 0 C1.19496094 -0.00386719 2.38992187 -0.00773438 3.62109375 -0.01171875 C4.87019531 -0.00011719 6.11929688 0.01148438 7.40625 0.0234375 C8.65535156 0.01183594 9.90445313 0.00023437 11.19140625 -0.01171875 C12.98384766 -0.00591797 12.98384766 -0.00591797 14.8125 0 C15.90884766 0.00338379 17.00519531 0.00676758 18.13476562 0.01025391 C20.90625 0.3984375 20.90625 0.3984375 22.75634766 1.69628906 C24.81207014 4.73928209 24.54013654 7.93853651 23.90625 11.3984375 C22.59198947 14.56581938 20.8703001 17.38567288 19.03125 20.2734375 C18.57105469 21.03140625 18.11085938 21.789375 17.63671875 22.5703125 C13.00847496 30.10965456 13.00847496 30.10965456 9.953125 30.91015625 C7.37177764 31.10770834 5.4128759 31.0812916 2.90625 30.3984375 C0.21260207 27.79069178 -1.32998946 24.67815751 -3.09375 21.3984375 C-3.65449219 20.55925781 -4.21523437 19.72007812 -4.79296875 18.85546875 C-8.37718389 13.46661382 -10.11894767 9.89135608 -9.09375 3.3984375 C-6.66247232 -0.17751533 -4.12136846 0.01272027 0 0 Z " fill="#006AE1" transform="translate(82.09375,160.6015625)"/>
</svg>
